<svg xmlns="http://www.w3.org/2000/svg" xmlns:xlink="http://www.w3.org/1999/xlink" width="16" height="16" viewBox="0 0 94.05 94.05" version="1.1" style="font-size: 16px;">
<g id="surface1">
<path style=" stroke:none;fill-rule:nonzero;fill:rgb(42.01355%,52.720642%,76.565552%);fill-opacity:1;" d="M 47.023438 90.050781 C 23.300781 90.050781 4 70.75 4 47.027344 C 4 23.300781 23.300781 4 47.023438 4 C 70.75 4 90.050781 23.300781 90.050781 47.027344 C 90.050781 70.75 70.75 90.050781 47.023438 90.050781 "></path>
<path style=" stroke:none;fill-rule:nonzero;fill:rgb(100%,100%,100%);fill-opacity:1;" d="M 47.023438 0 C 21.09375 0 0 21.097656 0 47.027344 C 0 72.957031 21.09375 94.050781 47.023438 94.050781 C 72.957031 94.050781 94.050781 72.957031 94.050781 47.027344 C 94.050781 21.097656 72.957031 0 47.023438 0 Z M 47.023438 8 C 68.578125 8 86.050781 25.472656 86.050781 47.027344 C 86.050781 68.578125 68.578125 86.050781 47.023438 86.050781 C 25.472656 86.050781 8 68.578125 8 47.027344 C 8 25.472656 25.472656 8 47.023438 8 "></path>
<path style=" stroke:none;fill-rule:nonzero;fill:rgb(100%,100%,100%);fill-opacity:1;" d="M 80.058594 46.917969 L 63.339844 35.976562 L 67.339844 45.050781 L 45.03125 45.050781 L 38.742188 39.050781 C 38.742188 39.050781 35.855469 39.050781 34.898438 39.050781 L 41.125 45.039062 L 37.203125 45.039062 L 31.046875 39.050781 C 30.066406 39.050781 28.195312 39.050781 27.203125 39.050781 L 33.414062 45.039062 L 29.570312 45.039062 L 23.351562 39.035156 C 23.164062 39.035156 19.507812 39.035156 19.507812 39.035156 L 25.71875 45.039062 L 25.71875 48.625 L 19.507812 54.640625 C 19.507812 54.640625 23.289062 54.640625 23.351562 54.640625 L 29.570312 48.625 L 33.496094 48.625 L 27.203125 54.640625 C 28.191406 54.640625 30.058594 54.640625 31.046875 54.640625 L 37.324219 48.625 L 41.085938 48.625 L 34.898438 54.640625 C 35.957031 54.640625 38.742188 54.640625 38.742188 54.640625 L 45.03125 48.625 L 67.371094 48.625 L 63.421875 57.617188 L 80.058594 46.917969 "></path>
</g>
</svg>