<svg xmlns:dc="http://purl.org/dc/elements/1.1/" xmlns:cc="http://creativecommons.org/ns#" xmlns:rdf="http://www.w3.org/1999/02/22-rdf-syntax-ns#" xmlns:svg="http://www.w3.org/2000/svg" xmlns="http://www.w3.org/2000/svg" id="svg7" height="64" width="64" version="1.0" preserveAspectRatio="xMidYMid meet" viewBox="0 0 343 329" style="font-size: 64px; color: rgb(216, 31, 6);">
    <metadata id="metadata11" style="fill: rgb(216, 31, 6);">
        <rdf:rdf style="fill: rgb(216, 31, 6);">
            <cc:work rdf:about="" style="fill: rgb(216, 31, 6);">
                <dc:format style="fill: rgb(216, 31, 6);">image/svg+xml</dc:format>
                <dc:type rdf:resource="http://purl.org/dc/dcmitype/StillImage" style="fill: rgb(216, 31, 6);"></dc:type>
            </cc:work>
        </rdf:rdf>
    </metadata>
    <defs id="defs3" style="fill: rgb(216, 31, 6);">
        <pattern y="0" x="0" height="6" width="6" patternUnits="userSpaceOnUse" id="EMFhbasepattern" style="fill: rgb(216, 31, 6);"></pattern>
    </defs>
    <path id="path5" d="  M 340.40752,123.0886   L 340.40752,123.0886   L 339.6059,120.88415   L 338.68404,118.75986   L 337.68201,116.87605   L 336.51966,114.95217   L 335.23707,113.14852   L 333.87432,111.50521   L 332.39133,109.98213   L 330.86825,108.45905   L 329.22493,107.05622   L 327.42129,105.85379   L 325.65773,104.65136   L 323.77392,103.60926   L 321.80996,102.52707   L 319.80591,101.60521   L 317.64154,100.80359   L 315.43708,100.04205   L 313.23263,99.360678   L 310.9881,98.719382   L 308.62332,98.158249   L 306.29863,97.757439   L 303.89377,97.316549   L 301.44883,96.995901   L 298.92373,96.715335   L 296.43871,96.51493   L 293.99378,96.314525   L 291.38851,96.234363   L 288.86341,96.114121   L 286.29823,96.033959   L 283.69297,96.114121   L 281.12779,96.234363   L 275.95735,96.51493   L 270.90715,96.835578   L 265.89703,97.35663   L 260.96707,98.038006   L 256.2776,98.719382   L 251.70837,99.48092   L 247.33955,100.3627   L 243.21121,101.16432   L 239.52376,102.00602   L 235.95656,102.72748   L 232.91041,103.5291   L 227.78004,104.85177   L 224.53349,105.77363   L 223.41122,106.13436   L 223.37114,104.93193   L 223.21082,101.56513   L 222.89017,96.394687   L 222.68976,93.067968   L 222.36912,89.540845   L 222.04847,85.733154   L 221.48734,81.524654   L 220.88612,77.155831   L 220.24483,72.546521   L 219.44321,67.897131   L 218.52134,62.967174   L 217.43916,58.077298   L 216.31689,53.10726   L 214.99422,48.137222   L 214.1926,45.612122   L 213.43106,43.247346   L 212.66953,40.802408   L 211.82783,38.317389   L 210.94605,35.952613   L 209.9841,33.70808   L 208.98208,31.303223   L 207.89989,29.058689   L 206.93795,26.854237   L 205.73552,24.689866   L 204.53309,22.645737   L 203.33066,20.521447   L 202.00799,18.597561   L 200.68532,16.673676   L 199.32257,14.870033   L 197.83957,13.146552   L 196.3165,11.423071   L 194.79342,9.8599139   L 193.23026,8.3769188   L 191.42662,7.0542474   L 189.70314,5.8117379   L 187.8995,4.6093094   L 186.05577,3.6874475   L 184.13189,2.7655856   L 182.08776,1.8838047   L 180.04363,1.2825904   L 177.91934,0.84169997   L 175.71489,0.36072856   L 173.39019,0.1603238   L 171.02542,0.080161902   L 168.78088,0.1603238   L 166.45619,0.36072856   L 164.21166,0.84169997   L 162.12745,1.2825904   L 160.00316,1.8838047   L 158.03919,2.7655856   L 156.03514,3.6874475   L 154.19142,4.6093094   L 152.38778,5.8117379   L 150.62421,7.0542474   L 148.94081,8.3769188   L 147.37766,9.8599139   L 145.77442,11.423071   L 144.3315,13.146552   L 142.84851,14.870033   L 141.48576,16.673676   L 140.16309,18.597561   L 138.84041,20.521447   L 137.55782,22.645737   L 136.43556,24.689866   L 135.23313,26.854237   L 134.19102,29.058689   L 133.10884,31.303223   L 132.18698,33.70808   L 131.18495,35.952613   L 130.26309,38.317389   L 129.46147,40.802408   L 128.69993,43.247346   L 127.89831,45.612122   L 127.17686,48.137222   L 125.85419,53.10726   L 124.65176,58.077298   L 123.56957,62.967174   L 122.72787,67.897131   L 121.84609,72.546521   L 121.2048,77.155831   L 120.60358,81.524654   L 120.12261,85.733154   L 119.80196,89.540845   L 119.40115,93.067968   L 119.20075,96.394687   L 118.8801,101.56513   L 118.75986,104.93193   L 118.75986,106.13436   L 117.63759,105.77363   L 114.39103,104.85177   L 109.26067,103.5291   L 106.17444,102.72748   L 102.64732,102.00602   L 98.879706,101.16432   L 94.751368,100.3627   L 90.462706,99.48092   L 85.893478,98.719382   L 81.123845,98.038006   L 76.27405,97.35663   L 71.263931,96.835578   L 66.133569,96.51493   L 60.963126,96.234363   L 58.478108,96.114121   L 55.872846,96.033959   L 53.347746,96.114121   L 50.782565,96.234363   L 48.177303,96.314525   L 45.692284,96.51493   L 43.167184,96.715335   L 40.762327,96.995901   L 38.317389,97.316549   L 35.872451,97.757439   L 33.507675,98.158249   L 31.223061,98.719382   L 28.898366,99.360678   L 26.653832,100.04205   L 24.529542,100.80359   L 22.405252,101.60521   L 20.361123,102.52707   L 18.397157,103.60926   L 16.513352,104.65136   L 14.669628,105.85379   L 12.946147,107.05622   L 11.302828,108.45905   L 9.779752,109.98213   L 8.2967569,111.50521   L 6.9340045,113.14852   L 5.6514141,114.95217   L 4.5291475,116.87605   L 3.4870427,118.75986   L 2.5651809,120.88415   L 1.7635618,123.0886   L 1.0821857,125.33313   L 0.64129522,127.53759   L 0.28056666,129.78212   L 0.1603238,132.02665   L 0.080161902,134.15094   L 0.24048571,136.3554   L 0.48097141,138.39952   L 0.88178092,140.52381   L 1.4429142,142.6481   L 2.0842095,144.69223   L 2.8858285,146.73636   L 3.7275284,148.66025   L 4.7295522,150.66429   L 5.8518188,152.62826   L 7.0542474,154.51207   L 8.3769188,156.43595   L 9.779752,158.27968   L 11.222666,160.04324   L 12.825904,161.92704   L 14.389061,163.6906   L 16.112542,165.41408   L 17.916185,167.09748   L 19.719828,168.86105   L 21.643714,170.46428   L 23.60768,172.1076   L 25.531566,173.63068   L 27.575694,175.23392   L 29.659904,176.83716   L 31.784194,178.28007   L 33.948566,179.76307   L 38.197146,182.52865   L 42.56597,185.17399   L 46.934794,187.69909   L 51.223455,190.02379   L 55.472036,192.26832   L 59.600374,194.31245   L 63.64855,196.23634   L 67.41616,197.95982   L 70.983364,199.56306   L 74.310083,200.96589   L 77.276074,202.12824   L 82.16595,204.13228   L 85.292264,205.17439   L 86.41453,205.65536   L 85.97364,205.5752   L 85.212102,206.49706   L 83.44854,209.30273   L 80.602792,213.79179   L 78.919393,216.5173   L 77.075669,219.64361   L 75.151783,222.93025   L 73.107655,226.57762   L 71.063526,230.50555   L 68.859074,234.59381   L 66.814945,238.92255   L 64.690655,243.37153   L 62.686607,247.98084   L 60.722641,252.7104   L 58.918998,257.52011   L 57.997136,260.00513   L 57.275679,262.36991   L 56.47406,264.81484   L 55.752603,267.33994   L 55.071227,269.78488   L 54.470012,272.18974   L 53.908879,274.63468   L 53.427908,277.07961   L 53.027098,279.52455   L 52.626289,282.00957   L 52.385803,284.29419   L 52.185398,286.7792   L 52.105236,289.06382   L 52.105236,291.46868   L 52.105236,293.71321   L 52.305641,295.95774   L 52.506046,298.24236   L 52.906855,300.32657   L 53.347746,302.53102   L 53.908879,304.57515   L 54.630336,306.65936   L 55.431955,308.62332   L 56.353817,310.62737   L 57.395922,312.39093   L 58.59835,314.19457   L 59.84086,315.99822   L 61.323855,317.64154   L 62.846931,319.24477   L 64.570412,320.76785   L 66.414136,322.1306   L 68.418183,323.45327   L 70.301988,324.6557   L 72.386198,325.65773   L 74.350164,326.45935   L 76.474455,327.1808   L 78.518583,327.66177   L 80.642873,328.06258   L 82.727083,328.38323   L 84.891454,328.42331   L 87.095907,328.42331   L 89.220197,328.38323   L 91.384568,328.06258   L 93.589021,327.70186   L 95.753392,327.26096   L 97.997925,326.65975   L 100.12222,326.05854   L 102.36675,325.25692   L 104.49104,324.4553   L 106.77565,323.45327   L 108.94002,322.49133   L 111.14448,321.40915   L 113.30885,320.20672   L 115.43314,318.96421   L 117.63759,317.7217   L 119.76188,316.31887   L 121.84609,314.91603   L 123.97038,313.47312   L 126.05459,311.95004   L 128.09872,310.3468   L 130.14285,308.82373   L 134.11086,305.57717   L 137.95863,302.21037   L 141.72624,298.88365   L 145.25337,295.51685   L 148.70033,292.06989   L 151.86672,288.82333   L 154.91288,285.49661   L 157.75862,282.45046   L 160.28372,279.52455   L 162.68858,276.83913   L 164.77279,274.35411   L 168.01935,270.34601   L 170.14364,267.62051   L 170.82501,266.69865   L 171.2659,266.69865   L 172.06752,267.62051   L 174.11165,270.34601   L 177.43837,274.35411   L 179.56266,276.83913   L 181.80719,279.52455   L 184.41246,282.45046   L 187.17804,285.49661   L 190.22419,288.82333   L 193.47075,292.06989   L 196.83755,295.51685   L 200.44484,298.88365   L 204.21245,302.21037   L 207.98005,305.57717   L 212.02823,308.82373   L 214.07236,310.3468   L 216.07641,311.95004   L 218.2007,313.47312   L 220.24483,314.91603   L 222.4092,316.31887   L 224.53349,317.7217   L 226.65778,318.96421   L 228.86223,320.20672   L 231.0266,321.40915   L 233.23105,322.49133   L 235.39543,323.45327   L 237.59988,324.4553   L 239.76425,325.25692   L 241.9687,326.05854   L 244.17315,326.65975   L 246.41769,327.26096   L 248.54198,327.70186   L 250.78651,328.06258   L 252.9108,328.38323   L 255.07517,328.42331   L 257.27962,328.42331   L 259.40391,328.38323   L 261.52821,328.06258   L 263.57233,327.66177   L 265.69662,327.1808   L 267.74075,326.45935   L 269.78488,325.65773   L 271.78893,324.6557   L 273.7529,323.45327   L 275.67678,322.1306   L 277.60067,320.76785   L 279.28407,319.24477   L 280.84722,317.64154   L 282.33022,315.99822   L 283.57273,314.19457   L 284.77516,312.39093   L 285.81726,310.62737   L 286.69904,308.62332   L 287.54074,306.65936   L 288.22212,304.57515   L 288.82333,302.53102   L 289.18406,300.32657   L 289.58487,298.24236   L 289.86544,295.95774   L 289.98568,293.71321   L 290.06584,291.46868   L 290.06584,289.06382   L 289.9456,286.7792   L 289.78528,284.29419   L 289.46463,282.00957   L 289.14398,279.52455   L 288.74317,277.07961   L 288.22212,274.63468   L 287.66099,272.18974   L 287.09985,269.78488   L 286.41848,267.33994   L 285.69702,264.81484   L 284.8954,262.36991   L 284.09378,260.00513   L 283.29216,257.52011   L 281.36828,252.7104   L 279.52455,247.98084   L 277.56059,243.37153   L 275.4363,238.92255   L 273.23184,234.59381   L 271.18771,230.50555   L 269.06342,226.57762   L 267.0193,222.93025   L 265.01525,219.64361   L 263.25169,216.5173   L 261.56829,213.79179   L 258.8027,209.30273   L 256.87881,206.49706   L 256.19744,205.5752   L 255.75655,205.65536   L 256.79865,205.17439   L 260.04521,204.13228   L 264.89501,202.12824   L 267.861,200.96589   L 271.18771,199.56306   L 274.75492,197.95982   L 278.52253,196.23634   L 282.53062,194.31245   L 286.61888,192.26832   L 290.90754,190.02379   L 295.31645,187.69909   L 299.60511,185.17399   L 303.97393,182.52865   L 308.30268,179.76307   L 310.38688,178.28007   L 312.47109,176.83716   L 314.59538,175.23392   L 316.55935,173.63068   L 318.60348,172.1076   L 320.52737,170.46428   L 322.45125,168.86105   L 324.25489,167.09748   L 326.01846,165.41408   L 327.70186,163.6906   L 329.42534,161.92704   L 330.94841,160.04324   L 332.39133,158.27968   L 333.79416,156.43595   L 335.11683,154.51207   L 336.31926,152.62826   L 337.44153,150.66429   L 338.44355,148.66025   L 339.28525,146.73636   L 340.16703,144.69223   L 340.72816,142.6481   L 341.2893,140.52381   L 341.69011,138.39952   L 341.93059,136.3554   L 342.05084,134.15094   L 342.05084,132.02665   L 341.89051,129.78212   L 341.60995,127.53759   L 341.08889,125.33313   L 340.40752,123.0886   z " style="fill: rgb(216, 31, 6); fill-rule: evenodd; fill-opacity: 1; stroke: none;"></path>
</svg>