<svg id="图层_3" data-name="图层 3" xmlns="http://www.w3.org/2000/svg" viewBox="0 0 1024 1024" width="16" height="16" style="font-size: 16px;">
    <defs>
        <style>.cls-1{fill:#ffb737;}.cls-2{fill:#fca220;}</style>
    </defs>
    <title>星星</title>
    <polygon class="cls-1" points="512 32.49 667.16 346.88 1014.1 397.29 763.05 642.01 822.32 987.55 512 824.41 201.68 987.55 260.95 642.01 9.9 397.29 356.84 346.88 512 32.49"></polygon>
    <polygon class="cls-2" points="359.51 347.32 356.84 352.74 9.9 403.15 10.56 403.8 512 542.69 359.51 347.32"></polygon>
    <polygon class="cls-2" points="667.16 346.88 514.18 32.49 513.53 33.16 512 542.69 667.16 346.88"></polygon>
    <polygon class="cls-2" points="763.05 642.01 1011.21 397.52 1010.42 397.02 512 542.69 763.05 642.01"></polygon>
    <polygon class="cls-2" points="260.95 648.67 202.9 989.36 203.81 989.22 512 542.69 260.95 648.67"></polygon>
    <polygon class="cls-2" points="512 824.41 818.46 991.51 818.66 990.6 515.66 540.54 512 824.41"></polygon>
</svg>