<svg xmlns:dc="http://purl.org/dc/elements/1.1/" xmlns:cc="http://creativecommons.org/ns#" xmlns:rdf="http://www.w3.org/1999/02/22-rdf-syntax-ns#" xmlns:svg="http://www.w3.org/2000/svg" xmlns="http://www.w3.org/2000/svg" id="svg9" height="16" width="16" version="1.0" preserveAspectRatio="xMidYMid meet" viewBox="0 0 44 44" style="font-size: 16px; color: rgb(19, 34, 122);">
  <metadata id="metadata13" style="fill: rgb(19, 34, 122);">
    <rdf:rdf style="fill: rgb(19, 34, 122);">
      <cc:work rdf:about="" style="fill: rgb(19, 34, 122);">
        <dc:format style="fill: rgb(19, 34, 122);">image/svg+xml</dc:format>
        <dc:type rdf:resource="http://purl.org/dc/dcmitype/StillImage" style="fill: rgb(19, 34, 122);"></dc:type>
      </cc:work>
    </rdf:rdf>
  </metadata>
  <defs id="defs3" style="fill: rgb(19, 34, 122);">
    <pattern y="0" x="0" height="6" width="6" patternUnits="userSpaceOnUse" id="EMFhbasepattern" style="fill: rgb(19, 34, 122);"></pattern>
  </defs>
  <path id="path5" d="  M 26.97448,10.861938   L 27.335209,10.861938   L 27.655856,10.9421   L 28.016585,11.102423   L 28.337232,11.262747   L 28.617799,11.503233   L 29.339256,12.264771   L 29.980551,13.06639   L 30.581766,13.90809   L 31.102818,14.74979   L 31.543708,15.671652   L 31.944518,16.553433   L 32.265166,17.515376   L 32.545732,18.437237   L 32.746137,19.39918   L 32.86638,20.361123   L 32.946542,21.323066   L 32.946542,22.32509   L 32.86638,23.287033   L 32.746137,24.248975   L 32.545732,25.210918   L 32.265166,26.13278   L 31.944518,27.094723   L 31.543708,27.976504   L 31.102818,28.858285   L 30.581766,29.740066   L 29.980551,30.581766   L 29.339256,31.383385   L 28.617799,32.104842   L 28.337232,32.385408   L 28.016585,32.545732   L 27.655856,32.706056   L 27.335209,32.786218   L 26.97448,32.786218   L 26.613751,32.786218   L 26.253023,32.706056   L 25.932375,32.545732   L 25.611728,32.385408   L 25.331161,32.104842   L 25.050594,31.864356   L 24.890271,31.543708   L 24.729947,31.18298   L 24.649785,30.862332   L 24.609704,30.501604   L 24.649785,30.140875   L 24.729947,29.780147   L 24.890271,29.459499   L 25.050594,29.178932   L 25.331161,28.858285   L 25.892294,28.21699   L 26.413347,27.575694   L 26.894318,26.854237   L 27.295128,26.13278   L 27.615775,25.371242   L 27.856261,24.609704   L 28.056666,23.808085   L 28.21699,23.046547   L 28.25707,22.204847   L 28.25707,21.403228   L 28.21699,20.601609   L 28.056666,19.79999   L 27.856261,19.038452   L 27.615775,18.276914   L 27.295128,17.515376   L 26.894318,16.793918   L 26.413347,16.072461   L 25.892294,15.391085   L 25.331161,14.789871   L 25.050594,14.469223   L 24.890271,14.188657   L 24.729947,13.868009   L 24.649785,13.50728   L 24.609704,13.146552   L 24.649785,12.785823   L 24.729947,12.465176   L 24.890271,12.144528   L 25.050594,11.823881   L 25.331161,11.503233   L 25.611728,11.262747   L 25.932375,11.102423   L 26.253023,10.9421   L 26.613751,10.861938   L 26.97448,10.861938  z    M 35.271237,6.4931141   L 35.631965,6.533195   L 35.952613,6.6133569   L 36.313342,6.7335998   L 36.633989,6.9340045   L 36.914556,7.1744902   L 37.716175,8.0562712   L 38.517794,8.9380521   L 39.19917,9.8599139   L 39.880546,10.821857   L 40.44168,11.823881   L 41.002813,12.825904   L 41.483784,13.90809   L 41.884594,14.950195   L 42.245322,16.072461   L 42.525889,17.194728   L 42.766375,18.316995   L 42.926699,19.479342   L 43.046941,20.64169   L 43.046941,21.804037   L 43.046941,23.006466   L 42.926699,24.168813   L 42.766375,25.331161   L 42.525889,26.453428   L 42.245322,27.575694   L 41.884594,28.65788   L 41.483784,29.780147   L 41.002813,30.78217   L 40.44168,31.824275   L 39.880546,32.826299   L 39.19917,33.788242   L 38.517794,34.710104   L 37.716175,35.591884   L 36.914556,36.473665   L 36.633989,36.714151   L 36.313342,36.874475   L 35.952613,37.034799   L 35.631965,37.114961   L 35.271237,37.114961   L 34.910508,37.114961   L 34.54978,37.034799   L 34.229132,36.874475   L 33.908485,36.714151   L 33.587837,36.473665   L 33.347351,36.193099   L 33.187027,35.872451   L 33.026704,35.511723   L 32.946542,35.191075   L 32.946542,34.830346   L 32.946542,34.469618   L 33.026704,34.14897   L 33.187027,33.828323   L 33.347351,33.507675   L 33.587837,33.187027   L 34.389456,32.385408   L 35.070832,31.543708   L 35.712127,30.702008   L 36.273261,29.780147   L 36.794313,28.858285   L 37.195123,27.896342   L 37.555851,26.894318   L 37.836418,25.892294   L 38.076903,24.890271   L 38.277308,23.888247   L 38.35747,22.846142   L 38.397551,21.804037   L 38.35747,20.802014   L 38.277308,19.759909   L 38.076903,18.757885   L 37.836418,17.71578   L 37.555851,16.753838   L 37.195123,15.751814   L 36.794313,14.789871   L 36.273261,13.868009   L 35.712127,12.946147   L 35.070832,12.064366   L 34.389456,11.222666   L 33.587837,10.421047   L 33.347351,10.140481   L 33.187027,9.819833   L 33.026704,9.4991854   L 32.946542,9.1785378   L 32.946542,8.8178092   L 32.946542,8.4570807   L 33.026704,8.0963521   L 33.187027,7.7757045   L 33.347351,7.4951378   L 33.587837,7.1744902   L 33.908485,6.9340045   L 34.229132,6.7335998   L 34.54978,6.6133569   L 34.910508,6.533195   L 35.271237,6.4931141  z   " style="fill: rgb(19, 34, 122); fill-rule: evenodd; fill-opacity: 1; stroke: none;"></path>
  <path id="path7" d="  M 20.361123,0.080161902   L 20.64169,0.12024285   L 20.962337,0.20040476   L 21.202823,0.36072856   L 21.443309,0.56113331   L 21.643714,0.80161902   L 21.763956,1.0421047   L 21.884199,1.3226714   L 21.884199,1.643319   L 21.884199,41.844513   L 21.884199,42.16516   L 21.763956,42.445727   L 21.643714,42.686213   L 21.443309,42.926699   L 21.202823,43.127103   L 20.962337,43.287427   L 20.64169,43.367589   L 20.361123,43.367589   L 20.040476,43.367589   L 19.759909,43.287427   L 19.479342,43.127103   L 19.238856,42.926699   L 7.2546521,31.022656   L 1.643319,31.022656   L 1.2825904,30.982575   L 0.96194282,30.862332   L 0.68137617,30.702008   L 0.44089046,30.461523   L 0.24048571,30.180956   L 0.12024285,29.820228   L 0.080161902,29.459499   L 0.080161902,14.028333   L 0.12024285,13.667604   L 0.24048571,13.346957   L 0.44089046,13.06639   L 0.68137617,12.825904   L 0.96194282,12.6255   L 1.2825904,12.505257   L 1.643319,12.465176   L 7.2546521,12.465176   L 19.238856,0.56113331   L 19.479342,0.36072856   L 19.759909,0.20040476   L 20.040476,0.1603238   L 20.361123,0.080161902   z " style="fill: rgb(19, 34, 122); fill-rule: evenodd; fill-opacity: 1; stroke: none;"></path>
</svg>