<svg width="16" height="16" viewBox="0 0 256 256" version="1.1" xmlns="http://www.w3.org/2000/svg" xmlns:xlink="http://www.w3.org/1999/xlink" style="font-size: 16px; color: rgb(19, 34, 122);">
    <!-- Generator: Sketch 49 (51002) - http://www.bohemiancoding.com/sketch -->
    <title style="fill: rgb(19, 34, 122);">帮助@256px</title>
    <desc style="fill: rgb(19, 34, 122);">Created with Sketch.</desc>
    <defs style="fill: rgb(19, 34, 122);"></defs>
    <g id="Page-1" stroke="none" stroke-width="1" fill="none" fill-rule="evenodd" style="fill: rgb(19, 34, 122);">
        <g id="帮助" transform="translate(32.000000, 32.000000)" fill="#868686" style="fill: rgb(19, 34, 122);">
            <path d="M96,0 C149.06256,0 192,42.94512 192,96 C192,149.05488 149.06256,192 96,192 C42.95352,192 0,149.05488 0,96 C0,42.94512 42.95352,0 96,0 Z M64,71.28968 C64,73.3052 64.49968,75.32096 66.5152,77.34392 C68.03128,78.86 70.0468,79.88288 72.57808,79.88288 C77.12488,79.88288 79.65616,77.34392 81.17224,72.28904 C82.68712,67.74224 84.70288,64.2116 86.7184,61.68032 C89.24968,59.15648 92.79712,58.14872 97.34392,58.14872 C101.3752,58.14872 104.90584,59.15648 107.43712,61.68032 C109.9684,63.70328 111.48424,66.73424 111.48424,70.28192 C111.48424,72.28904 110.9836,73.81256 109.9684,75.32096 C108.95296,76.83584 108.45256,77.85224 106.93744,79.36712 C105.4216,80.8832 103.39096,82.39904 100.87456,84.92192 C97.82776,87.45296 95.31256,89.9768 93.2968,92 C91.28128,94.00808 89.74936,96.5468 88.75,99.07904 C87.7336,102.1016 87.23392,105.13328 87.23392,108.68 C87.23392,111.70328 88.23424,113.71904 89.74936,115.23488 C91.28128,116.7584 93.2968,117.25808 95.31256,117.25808 C99.35872,117.25808 101.87488,115.23488 102.90616,110.69552 C103.39,108.68 103.90552,107.15648 103.90552,106.14872 C103.90552,105.13328 104.40616,104.63288 104.90584,103.61 C105.4216,102.61712 105.92128,101.60192 106.93744,100.58648 L110.48392,97.05488 C116.03128,92.50808 119.56192,88.96904 121.59328,86.94584 C124.10872,84.92192 125.64064,82.39904 127.14064,79.88288 C128.65552,77.34392 129.17128,73.81256 129.17128,70.28192 C129.17128,65.21096 127.65616,61.17968 125.12488,57.13328 C122.5936,53.08616 119.06224,50.06288 114.01552,47.5316 C108.95296,45.01616 103.39096,44 97.34392,44 C90.76552,44 84.70288,45.51584 79.65616,48.03968 C74.5936,51.07808 70.56256,54.61712 68.03128,58.6568 C65.5,63.2036 64,67.23488 64,71.28968 Z M95.31256,142.5236 C98.34328,142.5236 100.37488,141.51584 102.39064,140 C104.40616,138.47648 105.4216,135.96128 105.4216,132.92192 C105.4216,129.89096 104.40616,127.88288 102.39064,125.85224 C100.37488,123.82808 97.82776,122.81288 95.31256,122.81288 C92.2816,122.81288 90.25,123.82808 88.23424,125.85224 C86.21872,127.88288 85.20328,130.39904 85.20328,132.92192 C85.20328,135.96128 86.21872,138.47648 88.23424,140 C90.25,141.51584 92.79712,142.5236 95.31256,142.5236 Z" id="Combined-Shape" style="fill: rgb(19, 34, 122);"></path>
        </g>
    </g>
</svg>